<svg version="1.1" xmlns="http://www.w3.org/2000/svg" xmlns:xlink="http://www.w3.org/1999/xlink" x="0px" y="0px"
	 width="142px" height="39px" viewBox="0 0 142 39" enable-background="new 0 0 142 39" xml:space="preserve">
<g>
	<path fill="#ffffff" d="M43.028,19.673c-0.627,0.02-1.069,0.026-1.438,0.062c-0.534,0.051-0.912,0.16-1.454,0.457
		c-1.02,0.556-2.132,1.811-2.204,3.662c-0.013,0.386-0.013,1.146-0.034,1.59l-0.006,0.698l16.703,0.019
		c0.232-1.237,0.294-1.739,0.294-3.01c0-2.182-0.53-4.193-1.273-6.117c-0.751-1.946-1.969-3.537-3.356-4.967
		c-1.392-1.428-3.042-2.459-4.896-3.271c-1.851-0.817-3.935-1.204-6.055-1.204c-2.124,0-4.107,0.407-5.963,1.223
		c-1.851,0.812-3.471,1.931-4.858,3.361c-1.388,1.427-2.562,3.123-3.351,5.028c-0.469,1.131-0.794,2.304-0.984,3.526H24.15
		c-0.005,0.028-0.008,0.058-0.012,0.087c-0.021,0.138-0.038,0.279-0.055,0.419c-0.016,0.123-0.031,0.249-0.043,0.373
		c-0.055,0.557-0.085,1.122-0.085,1.7c0,2.14,0.472,4.166,1.263,6.071c0.792,1.905,1.882,3.316,3.27,4.748
		c1.146,1.178,2.451,2.145,3.915,2.904c0.074,0.04,0.147,0.079,0.221,0.117c0.063,0.032,0.128,0.061,0.19,0.091
		c1.287,0.628,2.667,1.07,4.149,1.318c2.263,0.381,4.867,0.14,7.319-0.668c0.031-0.012,0.067-0.024,0.099-0.034
		c1.076-0.364,1.975-0.861,2.992-1.395c1.662-1.026,2.702-2.055,2.702-2.055s0.879-0.939,1.376-1.516c-0.128-0.156,0,0-0.115-0.129
		c-1.86-2.122-3.221-2.851-4.631-2.841c-1.806,0.01-2.304,0.774-4.088,1.431c-0.157,0.058-0.308,0.108-0.459,0.158
		c-0.003,0.002-0.005,0.002-0.008,0.002c-0.162,0.055-0.322,0.102-0.479,0.146c-0.209,0.062-0.421,0.114-0.636,0.159
		c-0.063,0.013-0.128,0.025-0.19,0.038c-0.509,0.092-1.028,0.135-1.555,0.132l0.008-0.007c-0.288,0-0.572-0.016-0.853-0.045
		c-0.009-0.002-0.019-0.002-0.027-0.003c-0.218-0.022-0.431-0.062-0.643-0.101c-0.149-0.03-0.295-0.062-0.44-0.099
		c-0.097-0.023-0.194-0.049-0.29-0.077c-0.222-0.064-0.439-0.136-0.651-0.217c-0.024-0.009-0.048-0.018-0.072-0.026
		c-3.667-1.452-5.991-5.372-5.334-9.527l0.003-0.026c0.664-4.117,3.943-7.501,8.124-7.485c4.011,0.015,6.316,1.701,8.318,5.287
		h-0.58L43.028,19.673z"/>
	<path fill="#ffffff" d="M71.706,8.008c-2.692,0.512-4.69,1.436-6.935,3.329c-0.968,0.817-1.833,1.751-2.577,2.78
		c-1.907,2.638-2.873,5.852-2.939,9.094c-0.041,1.98-0.013,3.966-0.023,5.946c-0.015,3.221-0.03,6.442-0.045,9.663h7.403
		l-0.022-1.633c0.001-0.238,0.002-0.532,0.004-0.87c0.006-1.221,0.014-3.028,0.027-4.966c0.024-3.919,0.049-6.697,0.077-8.262
		c0.03-1.77,0.623-3.521,1.697-4.929c0.46-0.604,1.006-1.14,1.619-1.589c0.69-0.506,1.458-0.903,2.269-1.177
		c1.057-0.354,2.146-0.292,3.231-0.455c0.501-0.075,0.983-0.188,1.411-0.359c0.146-0.058,0.289-0.12,0.434-0.185
		c0.896-0.403,1.592-1.2,2.021-2.067c0.518-1.044,0.773-2.259,0.875-3.419c0.006-0.141,0.011-0.109,0.016-0.251
		c0.01-0.208,0.018-0.414,0.024-0.62c0.007-0.146,0.013-0.295,0.017-0.441l-0.34-0.003c-2.518-0.019-4.48-0.089-6.746,0.178
		L71.706,8.008"/>
	<path fill="#ffffff" d="M95.746,7.592c-8.543,0-15.467,6.925-15.467,15.469c0,8.541,6.924,15.467,15.467,15.467
		c8.541,0,15.467-6.926,15.467-15.467C111.213,14.517,104.287,7.592,95.746,7.592 M95.746,31.271c-4.535,0-8.213-3.677-8.213-8.211
		c0-4.537,3.678-8.213,8.213-8.213c4.536,0,8.213,3.676,8.213,8.213C103.959,27.595,100.282,31.271,95.746,31.271"/>
	<path fill="#ffffff" d="M126.227,15.145c1.334,0,2.846,0.276,4.063,0.859c1.21,0.578,2.279,1.452,3.086,2.523
		c0.832,1.101,1.286,2.361,1.286,3.627v9.99l0.014,0.596c0.058,1.863,0.017,2.404,0.612,3.518c0.563,1.063,1.732,2.21,3.436,2.569
		h3.113l-0.003-5.595c0-0.043,0.003-0.088,0.003-0.133V21.737c-0.188-3.279-1.373-5.426-2.876-7.615
		c-0.721-1.05-1.628-1.961-2.606-2.778c-2.271-1.894-4.854-2.883-7.576-3.396l-0.225-0.039c-1.926-0.175-3.646-0.225-5.313-0.234
		c-0.911,0.003-1.828,0.005-2.777,0.007c-0.406,0.002-0.818,0.003-1.236,0.003c-1.425,0-2.273,0.004-3.697,0L115.532,39h7.118
		V24.215v-3.229l0.018-5.877L126.227,15.145z"/>
	<path fill="#ffffff" d="M17.23,0h-7.067v0.021C8.211,0.122,6.254,0.871,4.63,1.978C2.996,3.089,1.711,4.688,0.986,6.526
		C0.53,7.68,0.164,8.783,0.164,10.022c0,0.121,0.002,0.555,0.007,0.893c-0.01,0.509,0.001,1.056,0.001,1.72v1.442V15.1H0.164v23.04
		h0.008v0.725H7.22l0.001-0.725v-0.002l0.013-10.837l0-0.91v-0.352v-2.536h8.51c2.244,0,4.07-1.825,4.07-4.071l0.045-3.488
		L7.195,15.923l0.002-0.765L7.196,15.1v-2.733c0-1.227,0.16-2.689,1.033-3.612c1.267-1.341,3.243-1.162,4.967-1.165l7.273-0.02
		c2.243,0,4.071-1.827,4.071-4.072V0.049l-7.31-0.026V0z"/>
</g>
</svg>
