<svg version="1.1" xmlns="http://www.w3.org/2000/svg" xmlns:xlink="http://www.w3.org/1999/xlink" x="0px" y="0px"
	 width="3665.196px" height="2999.055px" viewBox="0 0 3665.196 2999.055" enable-background="new 0 0 3665.196 2999.055"
	 xml:space="preserve">
<path display="none" fill="#FFFFFF" d="M1879.603,2702.158l-91.357-0.141L802.593,1666.662
	c-265.607,264.396-430.01,630.374-430.01,1034.753c0,806.344,653.672,1460.015,1460.016,1460.015
	s1460.015-653.671,1460.015-1460.015c0-404.005-164.097-769.68-429.271-1034.019L1879.603,2702.158z"/>
<path fill="#5CE0FF" d="M1830.653,2758.775"/>
<path fill="rgba(51,62,72,0.95)" d="M1879.603,1440.889l-91.357-0.142L417.845,1.245C157.02,317.797,0.368,723.392,0.368,1165.582
	c0,1011.912,820.318,1832.229,1832.23,1832.229s1832.231-820.317,1832.231-1832.229c0-441.95-156.482-847.347-417.055-1163.825
	L1879.603,1440.889z"/>
</svg>
